<svg id="Layer_2" data-name="Layer 2" xmlns="http://www.w3.org/2000/svg" viewBox="0 0 656.609 656.614" style="width: 100%; height: 100%;">
  <g id="Layer_2-2" data-name="Layer 2">
    <g>
      <circle cx="328.305" cy="328.305" r="328.305" fill="#367cff" opacity=".1"></circle>
      <g>
        <g>
          <g>
            <path d="m212.999,217.847h0c7.494,0,13.579,6.085,13.579,13.579v58.068h-27.158v-58.068c0-7.494,6.085-13.579,13.579-13.579Z" transform="translate(-118.09 243.784) rotate(-48.27)" fill="#fff"></path>
            <path d="m230.804,289.543l-44.337-39.543c-6.14-5.476-6.68-14.926-1.204-21.066,2.653-2.974,6.305-4.737,10.284-4.965,3.983-.23,7.809,1.108,10.782,3.761l44.337,39.544-19.862,22.269Zm-34.39-62.917c-.237,0-.475.007-.714.02-3.264.186-6.259,1.633-8.435,4.072-2.176,2.44-3.271,5.581-3.085,8.844.186,3.264,1.633,6.259,4.072,8.435l42.335,37.759,16.292-18.266-42.335-37.759c-2.261-2.017-5.125-3.106-8.13-3.106Z" fill="#292a2e"></path>
          </g>
          <g>
            <path d="m430.031,217.847h27.158v58.068c0,7.494-6.085,13.579-13.579,13.579h0c-7.494,0-13.579-6.085-13.579-13.579v-58.068h0Z" transform="translate(549.57 753.582) rotate(-131.73)" fill="#fff"></path>
            <path d="m425.805,289.543l-19.862-22.269,44.337-39.544c2.974-2.653,6.809-3.992,10.782-3.761,3.979.227,7.631,1.99,10.284,4.965,5.476,6.14,4.936,15.59-1.204,21.066l-44.337,39.543Zm-16.075-22.052l16.292,18.266,42.335-37.759c2.44-2.176,3.886-5.171,4.072-8.435.186-3.264-.909-6.405-3.085-8.844-2.176-2.44-5.171-3.886-8.435-4.072-3.267-.189-6.405.909-8.844,3.085l-42.335,37.759Z" fill="#292a2e"></path>
          </g>
        </g>
        <g>
          <g>
            <path d="m443.958,312.792c9.666,42.807,22.9,70.347,16.31,86.163-3.464,8.315-10.575,15.286-22.343,15.286-18.347,0-18.347-21.636-36.694-21.636s-18.344,21.636-36.688,21.636-18.343-21.636-36.687-21.636-18.344,21.636-36.687,21.636-18.343-21.636-36.687-21.636-18.341,21.636-36.682,21.636c-10.89,0-17.045-6.414-20.95-13.825-9.382-17.806,12.485-56.989,20.95-91.54,9.354-38.18,8.566-85.736,9.822-114.418,2.421-55.312,44.882-100.247,100.247-100.247s96.214,45.029,100.247,100.247c2.174,29.768,6.993,79.148,15.842,118.334Z" fill="#fff"></path>
            <path d="m437.925,415.594c-9.8,0-14.669-5.742-19.378-11.296-4.51-5.318-8.769-10.34-17.315-10.34s-12.804,5.022-17.313,10.34c-4.709,5.553-9.578,11.296-19.377,11.296s-14.666-5.742-19.374-11.296c-4.508-5.318-8.767-10.34-17.312-10.34s-12.804,5.022-17.312,10.34c-4.708,5.553-9.577,11.296-19.375,11.296s-14.667-5.742-19.375-11.296c-4.508-5.318-8.767-10.34-17.312-10.34s-12.802,5.022-17.309,10.34c-4.708,5.553-9.575,11.296-19.373,11.296-9.744,0-16.989-4.758-22.147-14.547-6.541-12.415,1.315-34.365,9.634-57.603,4.131-11.542,8.403-23.476,11.2-34.889,7.481-30.534,8.427-66.414,9.187-95.245.18-6.819.349-13.261.597-18.911,1.198-27.379,12.086-52.861,30.656-71.754,18.88-19.208,44.075-29.785,70.942-29.785,26.681,0,51.662,10.592,70.343,29.826,18.142,18.679,29.241,44.135,31.253,71.674,1.94,26.554,6.571,77.21,15.812,118.135h0c3.134,13.88,6.642,26.142,9.737,36.96,6.463,22.59,11.132,38.911,6.502,50.022-2.508,6.019-8.907,16.118-23.591,16.118Zm-36.693-24.341c9.8,0,14.669,5.742,19.378,11.296,4.51,5.318,8.769,10.34,17.315,10.34,13.115,0,18.846-9.055,21.095-14.454,4.265-10.237-.296-26.176-6.607-48.238-3.105-10.852-6.624-23.152-9.775-37.107h0c-9.28-41.099-13.927-91.906-15.871-118.534-4.123-56.436-46.64-98.994-98.899-98.994-53.027,0-96.467,43.465-98.896,98.954-.246,5.626-.416,12.055-.596,18.863-.723,27.432-1.713,65.001-9.264,95.818-2.829,11.548-7.126,23.551-11.28,35.157-8.112,22.661-15.774,44.067-9.787,55.431,4.646,8.816,11.107,13.103,19.754,13.103,8.544,0,12.802-5.022,17.31-10.34,4.708-5.554,9.575-11.296,19.372-11.296s14.667,5.742,19.375,11.296c4.508,5.318,8.767,10.34,17.312,10.34s12.804-5.023,17.313-10.34c4.708-5.554,9.577-11.296,19.375-11.296s14.667,5.743,19.375,11.296c4.508,5.318,8.766,10.34,17.311,10.34s12.806-5.023,17.314-10.34c4.708-5.554,9.577-11.296,19.375-11.296Z" fill="#292a2e"></path>
          </g>
          <g>
            <circle cx="290.199" cy="189.814" r="11.112" fill="#292a2e"></circle>
            <circle cx="366.396" cy="189.814" r="11.112" fill="#292a2e"></circle>
          </g>
          <g>
            <path d="m348.196,219.805c2.732,0,4.808,2.513,4.237,5.185-2.382,11.142-12.283,18.145-24.136,18.145s-21.754-7.003-24.136-18.145c-.571-2.671,1.506-5.185,4.237-5.185h39.797Z" fill="#fff"></path>
            <path d="m328.297,244.486c-12.771,0-23.002-7.721-25.459-19.214-.355-1.66.057-3.375,1.132-4.704,1.087-1.344,2.701-2.116,4.428-2.116h39.797c1.726,0,3.34.771,4.428,2.116,1.074,1.328,1.487,3.043,1.132,4.704-2.456,11.493-12.688,19.214-25.458,19.214Zm-19.898-23.329c-.906,0-1.754.405-2.326,1.112-.558.691-.773,1.579-.59,2.438,2.183,10.213,11.351,17.075,22.813,17.075s20.63-6.862,22.814-17.075c.182-.858-.033-1.747-.592-2.438-.57-.707-1.418-1.112-2.324-1.112h-39.797Z" fill="#292a2e"></path>
          </g>
        </g>
      </g>
      <path d="m589.495,527.234c-59.98,78.64-154.66,129.38-261.19,129.38s-201.21-50.74-261.19-129.38c68.47-25.76,160.27-41.51,261.19-41.51s192.72,15.75,261.19,41.51Z" fill="#367cff"></path>
      <path d="m617.054,171.945l-168.49-.72c0-28.14,15.85-33.68,32.7-38.25,16.84-4.57,24.43-35.5,53.71-37.26,17.29-1.04,26.36,3.41,33.87,9.14.01.01.01.02.02.02,18.73,20.16,34.96,42.68,48.19,67.07Z" fill="#fff"></path>
      <path d="m136.433,381.035l-132.12.57c-2.23-13.63-3.62-27.55-4.1-41.69,28.94-4.1,25.98-27.1,60.54-25.01,25.64,1.54,32.3,28.63,47.05,32.63s28.63,8.86,28.63,33.5Z" fill="#fff"></path>
    </g>
  </g>
</svg>